ISO-10303-21;
HEADER;
/* Generated by software containing ST-Developer
 * from STEP Tools, Inc. (www.steptools.com) 
 */

FILE_DESCRIPTION(
/* description */ (''),
/* implementation_level */ '2;1');

FILE_NAME(
/* name */ 'spacer.step',
/* time_stamp */ '2026-01-11T18:55:38+09:00',
/* author */ (''),
/* organization */ (''),
/* preprocessor_version */ 'ST-DEVELOPER v20.1',
/* originating_system */ 'Autodesk Translation Framework v14.21.0.0',
/* authorisation */ '');

FILE_SCHEMA (('AUTOMOTIVE_DESIGN { 1 0 10303 214 3 1 1 }'));
ENDSEC;

DATA;
#10=MECHANICAL_DESIGN_GEOMETRIC_PRESENTATION_REPRESENTATION('',(#13),#684);
#11=SHAPE_REPRESENTATION_RELATIONSHIP('SRR','None',#691,#12);
#12=ADVANCED_BREP_SHAPE_REPRESENTATION('',(#14),#683);
#13=STYLED_ITEM('',(#700),#14);
#14=MANIFOLD_SOLID_BREP('\X2\30DC30C730A3\X0\5',#424);
#15=CYLINDRICAL_SURFACE('',#455,1.75);
#16=FACE_BOUND('',#52,.T.);
#17=FACE_BOUND('',#63,.T.);
#18=CIRCLE('',#449,1.75);
#19=CIRCLE('',#456,1.75);
#20=FACE_OUTER_BOUND('',#41,.T.);
#21=FACE_OUTER_BOUND('',#42,.T.);
#22=FACE_OUTER_BOUND('',#43,.T.);
#23=FACE_OUTER_BOUND('',#44,.T.);
#24=FACE_OUTER_BOUND('',#45,.T.);
#25=FACE_OUTER_BOUND('',#46,.T.);
#26=FACE_OUTER_BOUND('',#47,.T.);
#27=FACE_OUTER_BOUND('',#48,.T.);
#28=FACE_OUTER_BOUND('',#49,.T.);
#29=FACE_OUTER_BOUND('',#50,.T.);
#30=FACE_OUTER_BOUND('',#51,.T.);
#31=FACE_OUTER_BOUND('',#53,.T.);
#32=FACE_OUTER_BOUND('',#54,.T.);
#33=FACE_OUTER_BOUND('',#55,.T.);
#34=FACE_OUTER_BOUND('',#56,.T.);
#35=FACE_OUTER_BOUND('',#57,.T.);
#36=FACE_OUTER_BOUND('',#58,.T.);
#37=FACE_OUTER_BOUND('',#59,.T.);
#38=FACE_OUTER_BOUND('',#60,.T.);
#39=FACE_OUTER_BOUND('',#61,.T.);
#40=FACE_OUTER_BOUND('',#62,.T.);
#41=EDGE_LOOP('',(#269,#270,#271,#272));
#42=EDGE_LOOP('',(#273,#274,#275,#276));
#43=EDGE_LOOP('',(#277,#278,#279,#280,#281,#282));
#44=EDGE_LOOP('',(#283,#284,#285,#286,#287,#288));
#45=EDGE_LOOP('',(#289,#290,#291,#292));
#46=EDGE_LOOP('',(#293,#294,#295,#296));
#47=EDGE_LOOP('',(#297,#298,#299,#300));
#48=EDGE_LOOP('',(#301,#302,#303,#304));
#49=EDGE_LOOP('',(#305,#306,#307,#308));
#50=EDGE_LOOP('',(#309,#310,#311,#312));
#51=EDGE_LOOP('',(#313,#314,#315,#316,#317,#318,#319,#320,#321,#322,#323,
#324));
#52=EDGE_LOOP('',(#325));
#53=EDGE_LOOP('',(#326,#327,#328,#329,#330,#331,#332,#333));
#54=EDGE_LOOP('',(#334,#335,#336,#337));
#55=EDGE_LOOP('',(#338,#339,#340,#341));
#56=EDGE_LOOP('',(#342,#343,#344,#345,#346,#347,#348,#349,#350,#351,#352,
#353));
#57=EDGE_LOOP('',(#354,#355,#356,#357,#358,#359,#360,#361));
#58=EDGE_LOOP('',(#362,#363,#364,#365));
#59=EDGE_LOOP('',(#366,#367,#368,#369));
#60=EDGE_LOOP('',(#370,#371,#372,#373));
#61=EDGE_LOOP('',(#374,#375,#376,#377));
#62=EDGE_LOOP('',(#378,#379,#380,#381));
#63=EDGE_LOOP('',(#382));
#64=LINE('',#568,#119);
#65=LINE('',#570,#120);
#66=LINE('',#572,#121);
#67=LINE('',#573,#122);
#68=LINE('',#577,#123);
#69=LINE('',#579,#124);
#70=LINE('',#581,#125);
#71=LINE('',#582,#126);
#72=LINE('',#585,#127);
#73=LINE('',#587,#128);
#74=LINE('',#589,#129);
#75=LINE('',#591,#130);
#76=LINE('',#592,#131);
#77=LINE('',#595,#132);
#78=LINE('',#597,#133);
#79=LINE('',#599,#134);
#80=LINE('',#601,#135);
#81=LINE('',#602,#136);
#82=LINE('',#605,#137);
#83=LINE('',#606,#138);
#84=LINE('',#609,#139);
#85=LINE('',#610,#140);
#86=LINE('',#614,#141);
#87=LINE('',#616,#142);
#88=LINE('',#618,#143);
#89=LINE('',#619,#144);
#90=LINE('',#622,#145);
#91=LINE('',#624,#146);
#92=LINE('',#625,#147);
#93=LINE('',#628,#148);
#94=LINE('',#629,#149);
#95=LINE('',#632,#150);
#96=LINE('',#633,#151);
#97=LINE('',#635,#152);
#98=LINE('',#637,#153);
#99=LINE('',#639,#154);
#100=LINE('',#641,#155);
#101=LINE('',#643,#156);
#102=LINE('',#644,#157);
#103=LINE('',#646,#158);
#104=LINE('',#647,#159);
#105=LINE('',#651,#160);
#106=LINE('',#652,#161);
#107=LINE('',#656,#162);
#108=LINE('',#657,#163);
#109=LINE('',#660,#164);
#110=LINE('',#662,#165);
#111=LINE('',#663,#166);
#112=LINE('',#664,#167);
#113=LINE('',#669,#168);
#114=LINE('',#672,#169);
#115=LINE('',#673,#170);
#116=LINE('',#676,#171);
#117=LINE('',#677,#172);
#118=LINE('',#679,#173);
#119=VECTOR('',#465,10.);
#120=VECTOR('',#466,10.);
#121=VECTOR('',#467,10.);
#122=VECTOR('',#468,10.);
#123=VECTOR('',#471,10.);
#124=VECTOR('',#472,10.);
#125=VECTOR('',#473,10.);
#126=VECTOR('',#474,10.);
#127=VECTOR('',#477,10.);
#128=VECTOR('',#478,10.);
#129=VECTOR('',#479,10.);
#130=VECTOR('',#480,10.);
#131=VECTOR('',#481,10.);
#132=VECTOR('',#484,10.);
#133=VECTOR('',#485,10.);
#134=VECTOR('',#486,10.);
#135=VECTOR('',#487,10.);
#136=VECTOR('',#488,10.);
#137=VECTOR('',#491,10.);
#138=VECTOR('',#492,10.);
#139=VECTOR('',#495,10.);
#140=VECTOR('',#496,10.);
#141=VECTOR('',#499,10.);
#142=VECTOR('',#500,10.);
#143=VECTOR('',#501,10.);
#144=VECTOR('',#502,10.);
#145=VECTOR('',#505,10.);
#146=VECTOR('',#506,10.);
#147=VECTOR('',#507,10.);
#148=VECTOR('',#510,10.);
#149=VECTOR('',#511,10.);
#150=VECTOR('',#514,10.);
#151=VECTOR('',#515,10.);
#152=VECTOR('',#518,10.);
#153=VECTOR('',#519,10.);
#154=VECTOR('',#520,10.);
#155=VECTOR('',#521,10.);
#156=VECTOR('',#522,10.);
#157=VECTOR('',#523,10.);
#158=VECTOR('',#524,10.);
#159=VECTOR('',#525,10.);
#160=VECTOR('',#530,10.);
#161=VECTOR('',#531,10.);
#162=VECTOR('',#536,10.);
#163=VECTOR('',#537,10.);
#164=VECTOR('',#540,10.);
#165=VECTOR('',#541,10.);
#166=VECTOR('',#542,10.);
#167=VECTOR('',#543,10.);
#168=VECTOR('',#550,1.75);
#169=VECTOR('',#553,10.);
#170=VECTOR('',#554,10.);
#171=VECTOR('',#557,10.);
#172=VECTOR('',#558,10.);
#173=VECTOR('',#561,10.);
#174=VERTEX_POINT('',#566);
#175=VERTEX_POINT('',#567);
#176=VERTEX_POINT('',#569);
#177=VERTEX_POINT('',#571);
#178=VERTEX_POINT('',#575);
#179=VERTEX_POINT('',#576);
#180=VERTEX_POINT('',#578);
#181=VERTEX_POINT('',#580);
#182=VERTEX_POINT('',#584);
#183=VERTEX_POINT('',#586);
#184=VERTEX_POINT('',#588);
#185=VERTEX_POINT('',#590);
#186=VERTEX_POINT('',#594);
#187=VERTEX_POINT('',#596);
#188=VERTEX_POINT('',#598);
#189=VERTEX_POINT('',#600);
#190=VERTEX_POINT('',#604);
#191=VERTEX_POINT('',#608);
#192=VERTEX_POINT('',#612);
#193=VERTEX_POINT('',#613);
#194=VERTEX_POINT('',#615);
#195=VERTEX_POINT('',#617);
#196=VERTEX_POINT('',#621);
#197=VERTEX_POINT('',#623);
#198=VERTEX_POINT('',#627);
#199=VERTEX_POINT('',#631);
#200=VERTEX_POINT('',#636);
#201=VERTEX_POINT('',#638);
#202=VERTEX_POINT('',#640);
#203=VERTEX_POINT('',#642);
#204=VERTEX_POINT('',#645);
#205=VERTEX_POINT('',#648);
#206=VERTEX_POINT('',#655);
#207=VERTEX_POINT('',#659);
#208=VERTEX_POINT('',#661);
#209=VERTEX_POINT('',#667);
#210=VERTEX_POINT('',#671);
#211=VERTEX_POINT('',#675);
#212=EDGE_CURVE('',#174,#175,#64,.T.);
#213=EDGE_CURVE('',#176,#174,#65,.T.);
#214=EDGE_CURVE('',#177,#176,#66,.T.);
#215=EDGE_CURVE('',#175,#177,#67,.T.);
#216=EDGE_CURVE('',#178,#179,#68,.T.);
#217=EDGE_CURVE('',#180,#178,#69,.T.);
#218=EDGE_CURVE('',#181,#180,#70,.T.);
#219=EDGE_CURVE('',#179,#181,#71,.T.);
#220=EDGE_CURVE('',#182,#181,#72,.T.);
#221=EDGE_CURVE('',#183,#182,#73,.T.);
#222=EDGE_CURVE('',#184,#183,#74,.T.);
#223=EDGE_CURVE('',#184,#185,#75,.T.);
#224=EDGE_CURVE('',#185,#179,#76,.T.);
#225=EDGE_CURVE('',#186,#176,#77,.T.);
#226=EDGE_CURVE('',#186,#187,#78,.T.);
#227=EDGE_CURVE('',#187,#188,#79,.T.);
#228=EDGE_CURVE('',#189,#188,#80,.T.);
#229=EDGE_CURVE('',#189,#177,#81,.T.);
#230=EDGE_CURVE('',#190,#189,#82,.T.);
#231=EDGE_CURVE('',#190,#175,#83,.T.);
#232=EDGE_CURVE('',#180,#191,#84,.T.);
#233=EDGE_CURVE('',#182,#191,#85,.T.);
#234=EDGE_CURVE('',#192,#193,#86,.T.);
#235=EDGE_CURVE('',#194,#193,#87,.T.);
#236=EDGE_CURVE('',#194,#195,#88,.T.);
#237=EDGE_CURVE('',#192,#195,#89,.T.);
#238=EDGE_CURVE('',#193,#196,#90,.T.);
#239=EDGE_CURVE('',#197,#196,#91,.T.);
#240=EDGE_CURVE('',#194,#197,#92,.T.);
#241=EDGE_CURVE('',#198,#191,#93,.T.);
#242=EDGE_CURVE('',#198,#178,#94,.T.);
#243=EDGE_CURVE('',#199,#192,#95,.T.);
#244=EDGE_CURVE('',#196,#199,#96,.T.);
#245=EDGE_CURVE('',#187,#197,#97,.T.);
#246=EDGE_CURVE('',#200,#186,#98,.T.);
#247=EDGE_CURVE('',#200,#201,#99,.T.);
#248=EDGE_CURVE('',#201,#202,#100,.T.);
#249=EDGE_CURVE('',#202,#203,#101,.T.);
#250=EDGE_CURVE('',#185,#203,#102,.T.);
#251=EDGE_CURVE('',#204,#184,#103,.T.);
#252=EDGE_CURVE('',#204,#195,#104,.T.);
#253=EDGE_CURVE('',#205,#205,#18,.T.);
#254=EDGE_CURVE('',#199,#204,#105,.T.);
#255=EDGE_CURVE('',#188,#183,#106,.T.);
#256=EDGE_CURVE('',#190,#206,#107,.T.);
#257=EDGE_CURVE('',#174,#206,#108,.T.);
#258=EDGE_CURVE('',#203,#207,#109,.T.);
#259=EDGE_CURVE('',#208,#207,#110,.T.);
#260=EDGE_CURVE('',#200,#208,#111,.T.);
#261=EDGE_CURVE('',#198,#206,#112,.T.);
#262=EDGE_CURVE('',#209,#209,#19,.T.);
#263=EDGE_CURVE('',#209,#205,#113,.T.);
#264=EDGE_CURVE('',#210,#208,#114,.T.);
#265=EDGE_CURVE('',#201,#210,#115,.T.);
#266=EDGE_CURVE('',#211,#210,#116,.T.);
#267=EDGE_CURVE('',#202,#211,#117,.T.);
#268=EDGE_CURVE('',#207,#211,#118,.T.);
#269=ORIENTED_EDGE('',*,*,#212,.F.);
#270=ORIENTED_EDGE('',*,*,#213,.F.);
#271=ORIENTED_EDGE('',*,*,#214,.F.);
#272=ORIENTED_EDGE('',*,*,#215,.F.);
#273=ORIENTED_EDGE('',*,*,#216,.F.);
#274=ORIENTED_EDGE('',*,*,#217,.F.);
#275=ORIENTED_EDGE('',*,*,#218,.F.);
#276=ORIENTED_EDGE('',*,*,#219,.F.);
#277=ORIENTED_EDGE('',*,*,#219,.T.);
#278=ORIENTED_EDGE('',*,*,#220,.F.);
#279=ORIENTED_EDGE('',*,*,#221,.F.);
#280=ORIENTED_EDGE('',*,*,#222,.F.);
#281=ORIENTED_EDGE('',*,*,#223,.T.);
#282=ORIENTED_EDGE('',*,*,#224,.T.);
#283=ORIENTED_EDGE('',*,*,#214,.T.);
#284=ORIENTED_EDGE('',*,*,#225,.F.);
#285=ORIENTED_EDGE('',*,*,#226,.T.);
#286=ORIENTED_EDGE('',*,*,#227,.T.);
#287=ORIENTED_EDGE('',*,*,#228,.F.);
#288=ORIENTED_EDGE('',*,*,#229,.T.);
#289=ORIENTED_EDGE('',*,*,#215,.T.);
#290=ORIENTED_EDGE('',*,*,#229,.F.);
#291=ORIENTED_EDGE('',*,*,#230,.F.);
#292=ORIENTED_EDGE('',*,*,#231,.T.);
#293=ORIENTED_EDGE('',*,*,#218,.T.);
#294=ORIENTED_EDGE('',*,*,#232,.T.);
#295=ORIENTED_EDGE('',*,*,#233,.F.);
#296=ORIENTED_EDGE('',*,*,#220,.T.);
#297=ORIENTED_EDGE('',*,*,#234,.T.);
#298=ORIENTED_EDGE('',*,*,#235,.F.);
#299=ORIENTED_EDGE('',*,*,#236,.T.);
#300=ORIENTED_EDGE('',*,*,#237,.F.);
#301=ORIENTED_EDGE('',*,*,#235,.T.);
#302=ORIENTED_EDGE('',*,*,#238,.T.);
#303=ORIENTED_EDGE('',*,*,#239,.F.);
#304=ORIENTED_EDGE('',*,*,#240,.F.);
#305=ORIENTED_EDGE('',*,*,#241,.T.);
#306=ORIENTED_EDGE('',*,*,#232,.F.);
#307=ORIENTED_EDGE('',*,*,#217,.T.);
#308=ORIENTED_EDGE('',*,*,#242,.F.);
#309=ORIENTED_EDGE('',*,*,#238,.F.);
#310=ORIENTED_EDGE('',*,*,#234,.F.);
#311=ORIENTED_EDGE('',*,*,#243,.F.);
#312=ORIENTED_EDGE('',*,*,#244,.F.);
#313=ORIENTED_EDGE('',*,*,#240,.T.);
#314=ORIENTED_EDGE('',*,*,#245,.F.);
#315=ORIENTED_EDGE('',*,*,#226,.F.);
#316=ORIENTED_EDGE('',*,*,#246,.F.);
#317=ORIENTED_EDGE('',*,*,#247,.T.);
#318=ORIENTED_EDGE('',*,*,#248,.T.);
#319=ORIENTED_EDGE('',*,*,#249,.T.);
#320=ORIENTED_EDGE('',*,*,#250,.F.);
#321=ORIENTED_EDGE('',*,*,#223,.F.);
#322=ORIENTED_EDGE('',*,*,#251,.F.);
#323=ORIENTED_EDGE('',*,*,#252,.T.);
#324=ORIENTED_EDGE('',*,*,#236,.F.);
#325=ORIENTED_EDGE('',*,*,#253,.F.);
#326=ORIENTED_EDGE('',*,*,#239,.T.);
#327=ORIENTED_EDGE('',*,*,#244,.T.);
#328=ORIENTED_EDGE('',*,*,#254,.T.);
#329=ORIENTED_EDGE('',*,*,#251,.T.);
#330=ORIENTED_EDGE('',*,*,#222,.T.);
#331=ORIENTED_EDGE('',*,*,#255,.F.);
#332=ORIENTED_EDGE('',*,*,#227,.F.);
#333=ORIENTED_EDGE('',*,*,#245,.T.);
#334=ORIENTED_EDGE('',*,*,#237,.T.);
#335=ORIENTED_EDGE('',*,*,#252,.F.);
#336=ORIENTED_EDGE('',*,*,#254,.F.);
#337=ORIENTED_EDGE('',*,*,#243,.T.);
#338=ORIENTED_EDGE('',*,*,#256,.T.);
#339=ORIENTED_EDGE('',*,*,#257,.F.);
#340=ORIENTED_EDGE('',*,*,#212,.T.);
#341=ORIENTED_EDGE('',*,*,#231,.F.);
#342=ORIENTED_EDGE('',*,*,#216,.T.);
#343=ORIENTED_EDGE('',*,*,#224,.F.);
#344=ORIENTED_EDGE('',*,*,#250,.T.);
#345=ORIENTED_EDGE('',*,*,#258,.T.);
#346=ORIENTED_EDGE('',*,*,#259,.F.);
#347=ORIENTED_EDGE('',*,*,#260,.F.);
#348=ORIENTED_EDGE('',*,*,#246,.T.);
#349=ORIENTED_EDGE('',*,*,#225,.T.);
#350=ORIENTED_EDGE('',*,*,#213,.T.);
#351=ORIENTED_EDGE('',*,*,#257,.T.);
#352=ORIENTED_EDGE('',*,*,#261,.F.);
#353=ORIENTED_EDGE('',*,*,#242,.T.);
#354=ORIENTED_EDGE('',*,*,#233,.T.);
#355=ORIENTED_EDGE('',*,*,#241,.F.);
#356=ORIENTED_EDGE('',*,*,#261,.T.);
#357=ORIENTED_EDGE('',*,*,#256,.F.);
#358=ORIENTED_EDGE('',*,*,#230,.T.);
#359=ORIENTED_EDGE('',*,*,#228,.T.);
#360=ORIENTED_EDGE('',*,*,#255,.T.);
#361=ORIENTED_EDGE('',*,*,#221,.T.);
#362=ORIENTED_EDGE('',*,*,#262,.F.);
#363=ORIENTED_EDGE('',*,*,#263,.T.);
#364=ORIENTED_EDGE('',*,*,#253,.T.);
#365=ORIENTED_EDGE('',*,*,#263,.F.);
#366=ORIENTED_EDGE('',*,*,#247,.F.);
#367=ORIENTED_EDGE('',*,*,#260,.T.);
#368=ORIENTED_EDGE('',*,*,#264,.F.);
#369=ORIENTED_EDGE('',*,*,#265,.F.);
#370=ORIENTED_EDGE('',*,*,#248,.F.);
#371=ORIENTED_EDGE('',*,*,#265,.T.);
#372=ORIENTED_EDGE('',*,*,#266,.F.);
#373=ORIENTED_EDGE('',*,*,#267,.F.);
#374=ORIENTED_EDGE('',*,*,#249,.F.);
#375=ORIENTED_EDGE('',*,*,#267,.T.);
#376=ORIENTED_EDGE('',*,*,#268,.F.);
#377=ORIENTED_EDGE('',*,*,#258,.F.);
#378=ORIENTED_EDGE('',*,*,#259,.T.);
#379=ORIENTED_EDGE('',*,*,#268,.T.);
#380=ORIENTED_EDGE('',*,*,#266,.T.);
#381=ORIENTED_EDGE('',*,*,#264,.T.);
#382=ORIENTED_EDGE('',*,*,#262,.T.);
#383=PLANE('',#438);
#384=PLANE('',#439);
#385=PLANE('',#440);
#386=PLANE('',#441);
#387=PLANE('',#442);
#388=PLANE('',#443);
#389=PLANE('',#444);
#390=PLANE('',#445);
#391=PLANE('',#446);
#392=PLANE('',#447);
#393=PLANE('',#448);
#394=PLANE('',#450);
#395=PLANE('',#451);
#396=PLANE('',#452);
#397=PLANE('',#453);
#398=PLANE('',#454);
#399=PLANE('',#457);
#400=PLANE('',#458);
#401=PLANE('',#459);
#402=PLANE('',#460);
#403=ADVANCED_FACE('',(#20),#383,.F.);
#404=ADVANCED_FACE('',(#21),#384,.F.);
#405=ADVANCED_FACE('',(#22),#385,.T.);
#406=ADVANCED_FACE('',(#23),#386,.T.);
#407=ADVANCED_FACE('',(#24),#387,.T.);
#408=ADVANCED_FACE('',(#25),#388,.T.);
#409=ADVANCED_FACE('',(#26),#389,.T.);
#410=ADVANCED_FACE('',(#27),#390,.F.);
#411=ADVANCED_FACE('',(#28),#391,.F.);
#412=ADVANCED_FACE('',(#29),#392,.F.);
#413=ADVANCED_FACE('',(#30,#16),#393,.F.);
#414=ADVANCED_FACE('',(#31),#394,.T.);
#415=ADVANCED_FACE('',(#32),#395,.F.);
#416=ADVANCED_FACE('',(#33),#396,.F.);
#417=ADVANCED_FACE('',(#34),#397,.T.);
#418=ADVANCED_FACE('',(#35),#398,.T.);
#419=ADVANCED_FACE('',(#36),#15,.F.);
#420=ADVANCED_FACE('',(#37),#399,.T.);
#421=ADVANCED_FACE('',(#38),#400,.T.);
#422=ADVANCED_FACE('',(#39),#401,.T.);
#423=ADVANCED_FACE('',(#40,#17),#402,.T.);
#424=CLOSED_SHELL('',(#403,#404,#405,#406,#407,#408,#409,#410,#411,#412,
#413,#414,#415,#416,#417,#418,#419,#420,#421,#422,#423));
#425=DERIVED_UNIT_ELEMENT(#427,1.);
#426=DERIVED_UNIT_ELEMENT(#686,-3.);
#427=(
MASS_UNIT()
NAMED_UNIT(*)
SI_UNIT(.KILO.,.GRAM.)
);
#428=DERIVED_UNIT((#425,#426));
#429=MEASURE_REPRESENTATION_ITEM('density measure',
POSITIVE_RATIO_MEASURE(7850.),#428);
#430=PROPERTY_DEFINITION_REPRESENTATION(#435,#432);
#431=PROPERTY_DEFINITION_REPRESENTATION(#436,#433);
#432=REPRESENTATION('material name',(#434),#683);
#433=REPRESENTATION('density',(#429),#683);
#434=DESCRIPTIVE_REPRESENTATION_ITEM('\X2\92FC\X0\','\X2\92FC\X0\');
#435=PROPERTY_DEFINITION('material property','material name',#693);
#436=PROPERTY_DEFINITION('material property','density of part',#693);
#437=AXIS2_PLACEMENT_3D('',#564,#461,#462);
#438=AXIS2_PLACEMENT_3D('',#565,#463,#464);
#439=AXIS2_PLACEMENT_3D('',#574,#469,#470);
#440=AXIS2_PLACEMENT_3D('',#583,#475,#476);
#441=AXIS2_PLACEMENT_3D('',#593,#482,#483);
#442=AXIS2_PLACEMENT_3D('',#603,#489,#490);
#443=AXIS2_PLACEMENT_3D('',#607,#493,#494);
#444=AXIS2_PLACEMENT_3D('',#611,#497,#498);
#445=AXIS2_PLACEMENT_3D('',#620,#503,#504);
#446=AXIS2_PLACEMENT_3D('',#626,#508,#509);
#447=AXIS2_PLACEMENT_3D('',#630,#512,#513);
#448=AXIS2_PLACEMENT_3D('',#634,#516,#517);
#449=AXIS2_PLACEMENT_3D('',#649,#526,#527);
#450=AXIS2_PLACEMENT_3D('',#650,#528,#529);
#451=AXIS2_PLACEMENT_3D('',#653,#532,#533);
#452=AXIS2_PLACEMENT_3D('',#654,#534,#535);
#453=AXIS2_PLACEMENT_3D('',#658,#538,#539);
#454=AXIS2_PLACEMENT_3D('',#665,#544,#545);
#455=AXIS2_PLACEMENT_3D('',#666,#546,#547);
#456=AXIS2_PLACEMENT_3D('',#668,#548,#549);
#457=AXIS2_PLACEMENT_3D('',#670,#551,#552);
#458=AXIS2_PLACEMENT_3D('',#674,#555,#556);
#459=AXIS2_PLACEMENT_3D('',#678,#559,#560);
#460=AXIS2_PLACEMENT_3D('',#680,#562,#563);
#461=DIRECTION('axis',(0.,0.,1.));
#462=DIRECTION('refdir',(1.,0.,0.));
#463=DIRECTION('center_axis',(0.,0.,-1.));
#464=DIRECTION('ref_axis',(-1.,0.,0.));
#465=DIRECTION('',(1.,0.,0.));
#466=DIRECTION('',(1.26882631385732E-16,1.,0.));
#467=DIRECTION('',(-1.,0.,0.));
#468=DIRECTION('',(0.,-1.,0.));
#469=DIRECTION('center_axis',(0.,0.,-1.));
#470=DIRECTION('ref_axis',(-1.,0.,0.));
#471=DIRECTION('',(1.26882631385732E-16,1.,0.));
#472=DIRECTION('',(-1.,0.,0.));
#473=DIRECTION('',(0.,-1.,0.));
#474=DIRECTION('',(1.,0.,0.));
#475=DIRECTION('center_axis',(0.,1.,0.));
#476=DIRECTION('ref_axis',(-1.,0.,0.));
#477=DIRECTION('',(0.,0.,1.));
#478=DIRECTION('',(-1.,0.,0.));
#479=DIRECTION('',(0.,0.,1.));
#480=DIRECTION('',(-1.,0.,0.));
#481=DIRECTION('',(0.,0.,1.));
#482=DIRECTION('center_axis',(0.,-1.,0.));
#483=DIRECTION('ref_axis',(1.,0.,0.));
#484=DIRECTION('',(0.,0.,1.));
#485=DIRECTION('',(1.,0.,0.));
#486=DIRECTION('',(0.,0.,1.));
#487=DIRECTION('',(1.,0.,0.));
#488=DIRECTION('',(0.,0.,1.));
#489=DIRECTION('center_axis',(1.,0.,0.));
#490=DIRECTION('ref_axis',(0.,1.,0.));
#491=DIRECTION('',(0.,-1.,0.));
#492=DIRECTION('',(0.,0.,1.));
#493=DIRECTION('center_axis',(1.,0.,0.));
#494=DIRECTION('ref_axis',(0.,1.,0.));
#495=DIRECTION('',(0.,0.,-1.));
#496=DIRECTION('',(0.,-1.,0.));
#497=DIRECTION('center_axis',(1.,-1.26882631385732E-16,0.));
#498=DIRECTION('ref_axis',(1.26882631385732E-16,1.,0.));
#499=DIRECTION('',(-1.26882631385732E-16,-1.,0.));
#500=DIRECTION('',(0.,0.,1.));
#501=DIRECTION('',(1.26882631385732E-16,1.,0.));
#502=DIRECTION('',(0.,0.,-1.));
#503=DIRECTION('center_axis',(0.,-1.,0.));
#504=DIRECTION('ref_axis',(1.,0.,0.));
#505=DIRECTION('',(1.,0.,0.));
#506=DIRECTION('',(0.,0.,1.));
#507=DIRECTION('',(1.,0.,0.));
#508=DIRECTION('center_axis',(0.,1.,0.));
#509=DIRECTION('ref_axis',(-1.,0.,0.));
#510=DIRECTION('',(1.,0.,0.));
#511=DIRECTION('',(0.,0.,1.));
#512=DIRECTION('center_axis',(0.,0.,1.));
#513=DIRECTION('ref_axis',(1.,0.,0.));
#514=DIRECTION('',(-1.,0.,0.));
#515=DIRECTION('',(0.,1.,0.));
#516=DIRECTION('center_axis',(0.,0.,1.));
#517=DIRECTION('ref_axis',(1.,0.,0.));
#518=DIRECTION('',(0.,1.,0.));
#519=DIRECTION('',(-1.26882631385732E-16,-1.,0.));
#520=DIRECTION('',(-1.,0.,0.));
#521=DIRECTION('',(0.,1.,0.));
#522=DIRECTION('',(1.,0.,0.));
#523=DIRECTION('',(-1.26882631385732E-16,-1.,0.));
#524=DIRECTION('',(0.,1.,0.));
#525=DIRECTION('',(-1.,0.,0.));
#526=DIRECTION('center_axis',(0.,0.,-1.));
#527=DIRECTION('ref_axis',(1.,0.,0.));
#528=DIRECTION('center_axis',(1.,0.,0.));
#529=DIRECTION('ref_axis',(0.,1.,0.));
#530=DIRECTION('',(0.,0.,-1.));
#531=DIRECTION('',(0.,1.,0.));
#532=DIRECTION('center_axis',(0.,1.,0.));
#533=DIRECTION('ref_axis',(-1.,0.,0.));
#534=DIRECTION('center_axis',(0.,-1.,0.));
#535=DIRECTION('ref_axis',(1.,0.,0.));
#536=DIRECTION('',(-1.,0.,0.));
#537=DIRECTION('',(0.,0.,-1.));
#538=DIRECTION('center_axis',(-1.,1.26882631385732E-16,0.));
#539=DIRECTION('ref_axis',(-1.26882631385732E-16,-1.,0.));
#540=DIRECTION('',(0.,0.,1.));
#541=DIRECTION('',(0.,1.,0.));
#542=DIRECTION('',(0.,0.,1.));
#543=DIRECTION('',(-1.26882631385732E-16,-1.,0.));
#544=DIRECTION('center_axis',(0.,0.,1.));
#545=DIRECTION('ref_axis',(1.,0.,0.));
#546=DIRECTION('center_axis',(0.,0.,1.));
#547=DIRECTION('ref_axis',(1.,0.,0.));
#548=DIRECTION('center_axis',(0.,0.,-1.));
#549=DIRECTION('ref_axis',(1.,0.,0.));
#550=DIRECTION('',(0.,0.,-1.));
#551=DIRECTION('center_axis',(0.,-1.,0.));
#552=DIRECTION('ref_axis',(1.,0.,0.));
#553=DIRECTION('',(1.,0.,0.));
#554=DIRECTION('',(0.,0.,1.));
#555=DIRECTION('center_axis',(-1.,0.,0.));
#556=DIRECTION('ref_axis',(0.,-1.,0.));
#557=DIRECTION('',(0.,-1.,0.));
#558=DIRECTION('',(0.,0.,1.));
#559=DIRECTION('center_axis',(0.,1.,0.));
#560=DIRECTION('ref_axis',(-1.,0.,0.));
#561=DIRECTION('',(-1.,0.,0.));
#562=DIRECTION('center_axis',(0.,0.,1.));
#563=DIRECTION('ref_axis',(1.,0.,0.));
#564=CARTESIAN_POINT('',(0.,0.,0.));
#565=CARTESIAN_POINT('Origin',(14.8750000745,0.,7.5));
#566=CARTESIAN_POINT('',(5.000000149,-7.,7.5));
#567=CARTESIAN_POINT('',(31.400000149,-7.,7.5));
#568=CARTESIAN_POINT('',(34.750000149,-7.,7.5));
#569=CARTESIAN_POINT('',(5.000000149,-8.75,7.5));
#570=CARTESIAN_POINT('',(5.000000149,4.375,7.5));
#571=CARTESIAN_POINT('',(31.400000149,-8.75,7.5));
#572=CARTESIAN_POINT('',(9.93750011175,-8.75,7.5));
#573=CARTESIAN_POINT('',(31.400000149,-4.375,7.5));
#574=CARTESIAN_POINT('Origin',(14.8750000745,0.,7.5));
#575=CARTESIAN_POINT('',(5.000000149,7.,7.5));
#576=CARTESIAN_POINT('',(5.000000149,8.75,7.5));
#577=CARTESIAN_POINT('',(5.000000149,4.375,7.5));
#578=CARTESIAN_POINT('',(31.400000149,7.,7.5));
#579=CARTESIAN_POINT('',(34.750000149,7.,7.5));
#580=CARTESIAN_POINT('',(31.400000149,8.75,7.5));
#581=CARTESIAN_POINT('',(31.400000149,-4.375,7.5));
#582=CARTESIAN_POINT('',(24.81250011175,8.75,7.5));
#583=CARTESIAN_POINT('Origin',(34.750000149,8.75,0.));
#584=CARTESIAN_POINT('',(31.400000149,8.75,5.));
#585=CARTESIAN_POINT('',(31.400000149,8.75,0.));
#586=CARTESIAN_POINT('',(34.750000149,8.75,5.));
#587=CARTESIAN_POINT('',(34.750000149,8.75,5.));
#588=CARTESIAN_POINT('',(34.750000149,8.75,0.));
#589=CARTESIAN_POINT('',(34.750000149,8.75,0.));
#590=CARTESIAN_POINT('',(5.000000149,8.75,0.));
#591=CARTESIAN_POINT('',(34.750000149,8.75,0.));
#592=CARTESIAN_POINT('',(5.000000149,8.75,0.));
#593=CARTESIAN_POINT('Origin',(5.000000149,-8.75,0.));
#594=CARTESIAN_POINT('',(5.000000149,-8.75,0.));
#595=CARTESIAN_POINT('',(5.000000149,-8.75,0.));
#596=CARTESIAN_POINT('',(34.750000149,-8.75,0.));
#597=CARTESIAN_POINT('',(5.000000149,-8.75,0.));
#598=CARTESIAN_POINT('',(34.750000149,-8.75,5.));
#599=CARTESIAN_POINT('',(34.750000149,-8.75,0.));
#600=CARTESIAN_POINT('',(31.400000149,-8.75,5.));
#601=CARTESIAN_POINT('',(5.000000149,-8.75,5.));
#602=CARTESIAN_POINT('',(31.400000149,-8.75,0.));
#603=CARTESIAN_POINT('Origin',(31.400000149,-8.75,0.));
#604=CARTESIAN_POINT('',(31.400000149,-7.,5.));
#605=CARTESIAN_POINT('',(31.400000149,-4.375,5.));
#606=CARTESIAN_POINT('',(31.400000149,-7.,0.));
#607=CARTESIAN_POINT('Origin',(31.400000149,-8.75,0.));
#608=CARTESIAN_POINT('',(31.400000149,7.,5.));
#609=CARTESIAN_POINT('',(31.400000149,7.,0.));
#610=CARTESIAN_POINT('',(31.400000149,-4.375,5.));
#611=CARTESIAN_POINT('Origin',(7.000000149,-7.,0.));
#612=CARTESIAN_POINT('',(7.000000149,7.,3.));
#613=CARTESIAN_POINT('',(7.000000149,-7.,3.));
#614=CARTESIAN_POINT('',(7.000000149,3.5,3.));
#615=CARTESIAN_POINT('',(7.000000149,-7.,0.));
#616=CARTESIAN_POINT('',(7.000000149,-7.,0.));
#617=CARTESIAN_POINT('',(7.000000149,7.,0.));
#618=CARTESIAN_POINT('',(7.000000149,-8.75,0.));
#619=CARTESIAN_POINT('',(7.000000149,7.,0.));
#620=CARTESIAN_POINT('Origin',(5.000000149,-7.,0.));
#621=CARTESIAN_POINT('',(34.750000149,-7.,3.));
#622=CARTESIAN_POINT('',(34.750000149,-7.,3.));
#623=CARTESIAN_POINT('',(34.750000149,-7.,0.));
#624=CARTESIAN_POINT('',(34.750000149,-7.,0.));
#625=CARTESIAN_POINT('',(13.437500149,-7.,0.));
#626=CARTESIAN_POINT('Origin',(31.400000149,7.,0.));
#627=CARTESIAN_POINT('',(5.000000149,7.,5.));
#628=CARTESIAN_POINT('',(18.700000149,7.,5.));
#629=CARTESIAN_POINT('',(5.000000149,7.,0.));
#630=CARTESIAN_POINT('Origin',(32.075000149,0.,3.));
#631=CARTESIAN_POINT('',(34.750000149,7.,3.));
#632=CARTESIAN_POINT('',(34.750000149,7.,3.));
#633=CARTESIAN_POINT('',(34.750000149,-4.375,3.));
#634=CARTESIAN_POINT('Origin',(19.875000149,0.,0.));
#635=CARTESIAN_POINT('',(34.750000149,-8.75,0.));
#636=CARTESIAN_POINT('',(5.000000149,-4.,0.));
#637=CARTESIAN_POINT('',(5.000000149,8.75,0.));
#638=CARTESIAN_POINT('',(-5.,-4.,0.));
#639=CARTESIAN_POINT('',(5.000000149,-4.,0.));
#640=CARTESIAN_POINT('',(-5.,4.,0.));
#641=CARTESIAN_POINT('',(-5.,-4.,0.));
#642=CARTESIAN_POINT('',(5.000000149,4.,0.));
#643=CARTESIAN_POINT('',(-5.,4.,0.));
#644=CARTESIAN_POINT('',(5.000000149,8.75,0.));
#645=CARTESIAN_POINT('',(34.750000149,7.,0.));
#646=CARTESIAN_POINT('',(34.750000149,-8.75,0.));
#647=CARTESIAN_POINT('',(25.637500149,7.,0.));
#648=CARTESIAN_POINT('',(-1.75,-2.14313189850787E-16,0.));
#649=CARTESIAN_POINT('Origin',(0.,0.,0.));
#650=CARTESIAN_POINT('Origin',(34.750000149,-8.75,0.));
#651=CARTESIAN_POINT('',(34.750000149,7.,0.));
#652=CARTESIAN_POINT('',(34.750000149,-8.75,5.));
#653=CARTESIAN_POINT('Origin',(31.400000149,7.,0.));
#654=CARTESIAN_POINT('Origin',(5.000000149,-7.,0.));
#655=CARTESIAN_POINT('',(5.000000149,-7.,5.));
#656=CARTESIAN_POINT('',(5.500000149,-7.,5.));
#657=CARTESIAN_POINT('',(5.000000149,-7.,0.));
#658=CARTESIAN_POINT('Origin',(5.000000149,8.75,0.));
#659=CARTESIAN_POINT('',(5.000000149,4.,2.));
#660=CARTESIAN_POINT('',(5.000000149,4.,0.));
#661=CARTESIAN_POINT('',(5.000000149,-4.,2.));
#662=CARTESIAN_POINT('',(5.000000149,4.,2.));
#663=CARTESIAN_POINT('',(5.000000149,-4.,0.));
#664=CARTESIAN_POINT('',(5.000000149,8.75,5.));
#665=CARTESIAN_POINT('Origin',(19.875000149,0.,5.));
#666=CARTESIAN_POINT('Origin',(0.,0.,0.));
#667=CARTESIAN_POINT('',(-1.75,-2.14313189850787E-16,2.));
#668=CARTESIAN_POINT('Origin',(0.,0.,2.));
#669=CARTESIAN_POINT('',(-1.75,-2.14313189850787E-16,0.));
#670=CARTESIAN_POINT('Origin',(-5.,-4.,0.));
#671=CARTESIAN_POINT('',(-5.,-4.,2.));
#672=CARTESIAN_POINT('',(5.000000149,-4.,2.));
#673=CARTESIAN_POINT('',(-5.,-4.,0.));
#674=CARTESIAN_POINT('Origin',(-5.,4.,0.));
#675=CARTESIAN_POINT('',(-5.,4.,2.));
#676=CARTESIAN_POINT('',(-5.,-4.,2.));
#677=CARTESIAN_POINT('',(-5.,4.,0.));
#678=CARTESIAN_POINT('Origin',(5.000000149,4.,0.));
#679=CARTESIAN_POINT('',(-5.,4.,2.));
#680=CARTESIAN_POINT('Origin',(7.45000006130425E-8,3.33066907387547E-15,
2.));
#681=UNCERTAINTY_MEASURE_WITH_UNIT(LENGTH_MEASURE(0.01),#685,
'DISTANCE_ACCURACY_VALUE',
'Maximum model space distance between geometric entities at asserted c
onnectivities');
#682=UNCERTAINTY_MEASURE_WITH_UNIT(LENGTH_MEASURE(0.01),#685,
'DISTANCE_ACCURACY_VALUE',
'Maximum model space distance between geometric entities at asserted c
onnectivities');
#683=(
GEOMETRIC_REPRESENTATION_CONTEXT(3)
GLOBAL_UNCERTAINTY_ASSIGNED_CONTEXT((#681))
GLOBAL_UNIT_ASSIGNED_CONTEXT((#685,#687,#688))
REPRESENTATION_CONTEXT('','3D')
);
#684=(
GEOMETRIC_REPRESENTATION_CONTEXT(3)
GLOBAL_UNCERTAINTY_ASSIGNED_CONTEXT((#682))
GLOBAL_UNIT_ASSIGNED_CONTEXT((#685,#687,#688))
REPRESENTATION_CONTEXT('','3D')
);
#685=(
LENGTH_UNIT()
NAMED_UNIT(*)
SI_UNIT(.MILLI.,.METRE.)
);
#686=(
LENGTH_UNIT()
NAMED_UNIT(*)
SI_UNIT($,.METRE.)
);
#687=(
NAMED_UNIT(*)
PLANE_ANGLE_UNIT()
SI_UNIT($,.RADIAN.)
);
#688=(
NAMED_UNIT(*)
SI_UNIT($,.STERADIAN.)
SOLID_ANGLE_UNIT()
);
#689=SHAPE_DEFINITION_REPRESENTATION(#690,#691);
#690=PRODUCT_DEFINITION_SHAPE('',$,#693);
#691=SHAPE_REPRESENTATION('',(#437),#683);
#692=PRODUCT_DEFINITION_CONTEXT('part definition',#697,'design');
#693=PRODUCT_DEFINITION('adadadwa','adadadwa v2',#694,#692);
#694=PRODUCT_DEFINITION_FORMATION('',$,#699);
#695=PRODUCT_RELATED_PRODUCT_CATEGORY('adadadwa v2','adadadwa v2',(#699));
#696=APPLICATION_PROTOCOL_DEFINITION('international standard',
'automotive_design',2009,#697);
#697=APPLICATION_CONTEXT(
'Core Data for Automotive Mechanical Design Process');
#698=PRODUCT_CONTEXT('part definition',#697,'mechanical');
#699=PRODUCT('adadadwa','adadadwa v2',$,(#698));
#700=PRESENTATION_STYLE_ASSIGNMENT((#701));
#701=SURFACE_STYLE_USAGE(.BOTH.,#702);
#702=SURFACE_SIDE_STYLE('',(#703));
#703=SURFACE_STYLE_FILL_AREA(#704);
#704=FILL_AREA_STYLE('\X2\92FC\X0\ - \X2\30B530C630F3\X0\',(#705));
#705=FILL_AREA_STYLE_COLOUR('\X2\92FC\X0\ - \X2\30B530C630F3\X0\',#706);
#706=COLOUR_RGB('\X2\92FC\X0\ - \X2\30B530C630F3\X0\',0.627450980392157,
0.627450980392157,0.627450980392157);
ENDSEC;
END-ISO-10303-21;
